<?xml version="1.0" encoding="utf-8" ?>
<svg xmlns="http://www.w3.org/2000/svg" xmlns:xlink="http://www.w3.org/1999/xlink" width="16" height="16" viewBox="0 0 16 16">
	<defs>
		<clipPath id="clipPath9781918281">
			<path d="M0 0L16 0L16 16L0 16L0 0Z" fill-rule="nonzero" transform="matrix(1 0 0 1 0 0)"/>
		</clipPath>
	</defs>
	<g clip-path="url(#clipPath9781918281)">
		<defs>
			<clipPath id="clipPath7279266615">
				<path d="M0 0L16 0L16 16L0 16L0 0Z" fill-rule="nonzero" transform="matrix(1 0 0 1 -0 -0)"/>
			</clipPath>
		</defs>
		<g clip-path="url(#clipPath7279266615)">
			<path d="M14.5 2L8.5 2L6.5 0L1.5 0C0.671562 0 0 0.671562 0 1.5L0 10.5C0 11.3284 0.671562 12 1.5 12L14.5 12C15.3284 12 16 11.3284 16 10.5L16 3.5C16 2.67156 15.3284 2 14.5 2Z" fill-rule="nonzero" transform="matrix(1 0 0 1 0 2)" fill="rgb(75, 85, 99)"/>
		</g>
	</g>
</svg>
